<svg width="202" height="32" viewBox="0 0 202 32" fill="none" xmlns="http://www.w3.org/2000/svg">
<path fill-rule="evenodd" clip-rule="evenodd" d="M26.6763 3.18661C29.2905 1.32974 34.6921 0.322495 38.7618 5.07044C39.2846 5.68038 39.3989 6.62685 38.6778 7.13235C38.6673 7.13971 38.6568 7.14687 38.6462 7.15384C39.0928 7.88221 39.6274 8.96936 39.7719 10.4148C39.8374 11.0695 39.5203 11.7055 38.863 11.8857C38.7719 12.9543 38.5048 15.0541 36.79 16.839C36.0447 17.6147 35.3381 18.1503 34.7162 18.5168C34.2076 18.8166 34.0698 19.0404 34.0493 19.6116C33.9648 21.9674 33.1729 24.4526 31.6486 26.2404C29.7387 28.4803 26.3592 29.6991 22.5906 30.2066C18.815 30.7152 14.6893 30.1973 11.8761 27.9751C10.0152 26.5052 8.91562 24.5118 8.37381 22.4119C8.22424 21.8323 8.03119 21.6473 7.44009 21.469C6.67768 21.2391 5.73682 20.8095 4.67657 20.0393C2.67397 18.5846 2.04103 16.5647 1.76301 15.5289C-0.358945 15.3364 0.687253 11.9967 1.14252 10.8329C0.316035 10.479 0.247512 9.50675 0.661303 8.8029C3.83049 3.41204 9.32527 3.45113 12.2259 4.8182C13.3868 5.36534 14.4343 6.01803 15.2858 6.93248C16.7385 8.49245 17.9604 5.62903 19.1967 5.05209C20.703 4.34917 20.179 5.4611 20.3013 5.85544C20.4133 5.58877 22.5105 4.55 22.4101 5.55419C22.3473 6.18208 22.3742 6.58605 22.7782 6.76591C23.2555 6.97837 23.5827 6.6319 23.7885 6.25353C24.4871 4.96926 25.4843 4.03326 26.6763 3.18661ZM15.0337 15.5193C16.1079 15.1801 17.0026 15.9919 17.1391 17.0446C17.2755 18.0973 16.8168 18.8277 16.022 19.0425C15.2271 19.2573 14.3463 18.5054 14.1744 17.775C14.1102 17.5023 14.064 17.1661 14.0872 16.8341C14.0994 16.6603 14.3529 16.601 14.5272 16.601C14.8359 16.601 15.0552 16.2822 14.9526 15.9964C14.8937 15.8326 14.8678 15.5717 15.0337 15.5193ZM29.3714 14.4109C29.182 13.3664 28.2475 12.6008 27.1918 12.9937C27.0287 13.0544 27.0678 13.3137 27.1348 13.4743C27.2517 13.7546 27.0488 14.0841 26.7404 14.0997C26.5664 14.1084 26.3162 14.1804 26.3128 14.3547C26.3064 14.6873 26.3695 15.0208 26.4473 15.2899C26.6558 16.0107 27.5734 16.7173 28.3565 16.4626C29.1395 16.208 29.5608 15.4553 29.3714 14.4109ZM20.1859 22.4761C19.7958 21.9545 19.5457 21.3168 19.4988 20.6132L19.3026 17.67C19.1929 16.0244 20.3191 14.5521 21.936 14.2271C23.6988 13.8728 25.4193 14.9999 25.7987 16.7575L26.421 19.6409C26.6207 20.5661 26.4353 21.4812 25.9758 22.2236C26.0519 23.738 24.8649 25.1245 23.232 25.1538C21.6575 25.1821 20.3526 23.9987 20.1859 22.4761ZM5.9281 14.2871C5.57035 12.2889 6.90014 10.3791 8.89828 10.0214C9.7796 9.86359 10.6437 10.0341 11.3651 10.4454C11.5737 10.5644 11.5974 10.8451 11.4384 11.025C10.1465 12.4873 9.01792 14.3742 8.49566 16.6841C8.4421 16.9209 8.19673 17.0673 7.97722 16.9635C6.93907 16.4725 6.14591 15.5036 5.9281 14.2871ZM34.3004 12.2003C34.8258 10.2396 33.6622 8.22415 31.7015 7.69877C30.5077 7.3789 29.2936 7.68512 28.408 8.41615C28.2207 8.57073 28.2489 8.85505 28.4405 9.00419C30.3094 10.4586 31.5379 12.2822 32.3124 14.0731C32.4077 14.2935 32.6719 14.3913 32.8682 14.253C33.5471 13.7749 34.0687 13.0651 34.3004 12.2003Z" fill="white"/>
<path d="M20.1858 22.4784C20.9393 23.4861 22.2156 24.061 23.5599 23.8417C24.6048 23.6712 25.4618 23.0571 25.9758 22.2268C26.0529 23.7418 24.8656 25.1293 23.2321 25.1586C21.6568 25.1869 20.3512 24.0023 20.1858 22.4784Z" fill="white" fill-opacity="0.4"/>
<path d="M56.088 25.288C54.968 25.288 53.912 25.088 52.92 24.688C51.944 24.272 51.096 23.688 50.376 22.936C49.672 22.184 49.144 21.296 48.792 20.272L51.84 18.904C52.288 19.88 52.904 20.648 53.688 21.208C54.488 21.768 55.368 22.048 56.328 22.048C56.84 22.048 57.28 21.968 57.648 21.808C58.016 21.648 58.304 21.432 58.512 21.16C58.72 20.872 58.824 20.536 58.824 20.152C58.824 19.736 58.696 19.384 58.44 19.096C58.184 18.792 57.784 18.552 57.24 18.376L53.736 17.224C52.312 16.76 51.24 16.104 50.52 15.256C49.8 14.392 49.44 13.36 49.44 12.16C49.44 11.104 49.696 10.176 50.208 9.376C50.736 8.576 51.464 7.952 52.392 7.504C53.336 7.056 54.416 6.832 55.632 6.832C56.704 6.832 57.696 7.016 58.608 7.384C59.52 7.752 60.304 8.272 60.96 8.944C61.632 9.616 62.136 10.424 62.472 11.368L59.448 12.736C59.112 11.904 58.608 11.256 57.936 10.792C57.264 10.312 56.496 10.072 55.632 10.072C55.136 10.072 54.696 10.152 54.312 10.312C53.928 10.472 53.632 10.704 53.424 11.008C53.216 11.296 53.112 11.632 53.112 12.016C53.112 12.432 53.248 12.8 53.52 13.12C53.792 13.424 54.2 13.664 54.744 13.84L58.176 14.944C59.616 15.408 60.688 16.056 61.392 16.888C62.112 17.72 62.472 18.736 62.472 19.936C62.472 20.976 62.2 21.904 61.656 22.72C61.112 23.52 60.36 24.152 59.4 24.616C58.456 25.064 57.352 25.288 56.088 25.288ZM69.5631 25.288C68.5071 25.288 67.6031 25.064 66.8511 24.616C66.1151 24.152 65.5551 23.512 65.1711 22.696C64.7871 21.88 64.5951 20.928 64.5951 19.84V11.896H68.1951V19.552C68.1951 20.048 68.2911 20.488 68.4831 20.872C68.6911 21.24 68.9791 21.528 69.3471 21.736C69.7151 21.944 70.1311 22.048 70.5951 22.048C71.0751 22.048 71.4911 21.944 71.8431 21.736C72.2111 21.528 72.4911 21.24 72.6831 20.872C72.8911 20.488 72.9951 20.048 72.9951 19.552V11.896H76.5951V25H73.2351V22.408L73.4271 22.984C73.1231 23.768 72.6271 24.352 71.9391 24.736C71.2671 25.104 70.4751 25.288 69.5631 25.288ZM79.2263 29.8V11.896H82.5863V14.392L82.2743 13.672C82.7063 13.016 83.2903 12.512 84.0263 12.16C84.7783 11.792 85.6343 11.608 86.5943 11.608C87.8423 11.608 88.9703 11.912 89.9783 12.52C90.9863 13.128 91.7863 13.952 92.3783 14.992C92.9703 16.016 93.2663 17.168 93.2663 18.448C93.2663 19.712 92.9703 20.864 92.3783 21.904C91.8023 22.944 91.0103 23.768 90.0023 24.376C88.9943 24.984 87.8503 25.288 86.5703 25.288C85.6743 25.288 84.8423 25.128 84.0742 24.808C83.3223 24.472 82.7143 23.984 82.2503 23.344L82.8263 22.6V29.8H79.2263ZM86.1383 22.048C86.8103 22.048 87.4023 21.896 87.9143 21.592C88.4263 21.288 88.8263 20.864 89.1143 20.32C89.4023 19.776 89.5463 19.152 89.5463 18.448C89.5463 17.744 89.4023 17.128 89.1143 16.6C88.8263 16.056 88.4263 15.632 87.9143 15.328C87.4023 15.008 86.8103 14.848 86.1383 14.848C85.4983 14.848 84.9223 15 84.4103 15.304C83.9143 15.608 83.5223 16.032 83.2343 16.576C82.9623 17.12 82.8263 17.744 82.8263 18.448C82.8263 19.152 82.9623 19.776 83.2343 20.32C83.5223 20.864 83.9143 21.288 84.4103 21.592C84.9223 21.896 85.4983 22.048 86.1383 22.048ZM101.687 25.288C100.295 25.288 99.0867 24.984 98.0627 24.376C97.0387 23.752 96.2467 22.92 95.6867 21.88C95.1267 20.84 94.8467 19.688 94.8467 18.424C94.8467 17.112 95.1347 15.944 95.7107 14.92C96.3027 13.896 97.0947 13.088 98.0867 12.496C99.0787 11.904 100.199 11.608 101.447 11.608C102.487 11.608 103.407 11.776 104.207 12.112C105.007 12.432 105.679 12.888 106.223 13.48C106.783 14.072 107.207 14.76 107.495 15.544C107.783 16.312 107.927 17.152 107.927 18.064C107.927 18.32 107.911 18.576 107.879 18.832C107.863 19.072 107.823 19.28 107.759 19.456H97.9427V16.816H105.719L104.015 18.064C104.175 17.376 104.167 16.768 103.991 16.24C103.815 15.696 103.503 15.272 103.055 14.968C102.623 14.648 102.087 14.488 101.447 14.488C100.823 14.488 100.287 14.64 99.8387 14.944C99.3907 15.248 99.0547 15.696 98.8307 16.288C98.6067 16.88 98.5187 17.6 98.5667 18.448C98.5027 19.184 98.5907 19.832 98.8307 20.392C99.0707 20.952 99.4387 21.392 99.9347 21.712C100.431 22.016 101.031 22.168 101.735 22.168C102.375 22.168 102.919 22.04 103.367 21.784C103.831 21.528 104.191 21.176 104.447 20.728L107.327 22.096C107.071 22.736 106.663 23.296 106.103 23.776C105.559 24.256 104.911 24.632 104.159 24.904C103.407 25.16 102.583 25.288 101.687 25.288ZM110.047 25V11.896H113.407V15.04L113.167 14.584C113.455 13.48 113.927 12.736 114.583 12.352C115.255 11.952 116.047 11.752 116.959 11.752H117.727V14.872H116.599C115.719 14.872 115.007 15.144 114.463 15.688C113.919 16.216 113.647 16.968 113.647 17.944V25H110.047ZM126.648 25.288C125.752 25.288 124.92 25.128 124.152 24.808C123.4 24.472 122.792 23.984 122.328 23.344L122.664 22.6V25H119.304V6.832H122.904V14.392L122.352 13.672C122.784 13.016 123.368 12.512 124.104 12.16C124.856 11.792 125.712 11.608 126.672 11.608C127.92 11.608 129.048 11.912 130.056 12.52C131.064 13.128 131.864 13.952 132.456 14.992C133.048 16.016 133.344 17.168 133.344 18.448C133.344 19.712 133.048 20.864 132.456 21.904C131.88 22.944 131.088 23.768 130.08 24.376C129.072 24.984 127.928 25.288 126.648 25.288ZM126.216 22.048C126.888 22.048 127.48 21.896 127.992 21.592C128.504 21.288 128.904 20.864 129.192 20.32C129.48 19.776 129.624 19.152 129.624 18.448C129.624 17.744 129.48 17.128 129.192 16.6C128.904 16.056 128.504 15.632 127.992 15.328C127.48 15.008 126.888 14.848 126.216 14.848C125.576 14.848 125 15 124.488 15.304C123.992 15.608 123.6 16.032 123.312 16.576C123.04 17.12 122.904 17.744 122.904 18.448C122.904 19.152 123.04 19.776 123.312 20.32C123.6 20.864 123.992 21.288 124.488 21.592C125 21.896 125.576 22.048 126.216 22.048ZM135.453 25V6.832H139.053V25H135.453ZM148.191 25.288C146.895 25.288 145.711 24.992 144.639 24.4C143.583 23.808 142.735 23 142.095 21.976C141.471 20.936 141.159 19.76 141.159 18.448C141.159 17.12 141.471 15.944 142.095 14.92C142.735 13.896 143.583 13.088 144.639 12.496C145.711 11.904 146.895 11.608 148.191 11.608C149.487 11.608 150.663 11.904 151.719 12.496C152.775 13.088 153.615 13.896 154.239 14.92C154.879 15.944 155.199 17.12 155.199 18.448C155.199 19.76 154.879 20.936 154.239 21.976C153.615 23 152.775 23.808 151.719 24.4C150.663 24.992 149.487 25.288 148.191 25.288ZM148.191 22.048C148.847 22.048 149.415 21.896 149.895 21.592C150.391 21.288 150.775 20.864 151.047 20.32C151.335 19.776 151.479 19.152 151.479 18.448C151.479 17.744 151.335 17.128 151.047 16.6C150.775 16.056 150.391 15.632 149.895 15.328C149.415 15.008 148.847 14.848 148.191 14.848C147.535 14.848 146.959 15.008 146.463 15.328C145.967 15.632 145.575 16.056 145.287 16.6C145.015 17.128 144.879 17.744 144.879 18.448C144.879 19.152 145.015 19.776 145.287 20.32C145.575 20.864 145.967 21.288 146.463 21.592C146.959 21.896 147.535 22.048 148.191 22.048ZM163.752 25.288C162.44 25.288 161.256 24.992 160.2 24.4C159.16 23.792 158.328 22.968 157.704 21.928C157.096 20.888 156.792 19.72 156.792 18.424C156.792 17.128 157.096 15.968 157.704 14.944C158.312 13.904 159.144 13.088 160.2 12.496C161.256 11.904 162.44 11.608 163.752 11.608C164.728 11.608 165.632 11.776 166.464 12.112C167.296 12.448 168.008 12.92 168.6 13.528C169.192 14.12 169.616 14.824 169.872 15.64L166.752 16.984C166.528 16.328 166.144 15.808 165.6 15.424C165.072 15.04 164.456 14.848 163.752 14.848C163.128 14.848 162.568 15 162.072 15.304C161.592 15.608 161.208 16.032 160.92 16.576C160.648 17.12 160.512 17.744 160.512 18.448C160.512 19.152 160.648 19.776 160.92 20.32C161.208 20.864 161.592 21.288 162.072 21.592C162.568 21.896 163.128 22.048 163.752 22.048C164.472 22.048 165.096 21.856 165.624 21.472C166.152 21.088 166.528 20.568 166.752 19.912L169.872 21.28C169.632 22.048 169.216 22.736 168.624 23.344C168.032 23.952 167.32 24.432 166.488 24.784C165.656 25.12 164.744 25.288 163.752 25.288ZM171.992 25V6.832H175.592V18.472L174.248 18.04L180.032 11.896H184.472L179.72 17.176L184.448 25H180.368L176.408 18.352L178.496 17.824L174.488 22.192L175.592 20.104V25H171.992ZM191.19 25.288C189.75 25.288 188.494 24.952 187.422 24.28C186.366 23.592 185.646 22.672 185.262 21.52L187.902 20.272C188.238 20.976 188.694 21.528 189.27 21.928C189.846 22.328 190.486 22.528 191.19 22.528C191.702 22.528 192.094 22.424 192.366 22.216C192.638 22.008 192.774 21.72 192.774 21.352C192.774 21.16 192.726 21 192.63 20.872C192.534 20.728 192.39 20.6 192.198 20.488C192.006 20.376 191.766 20.28 191.478 20.2L189.246 19.576C188.174 19.272 187.35 18.784 186.774 18.112C186.198 17.424 185.91 16.616 185.91 15.688C185.91 14.872 186.118 14.16 186.534 13.552C186.95 12.944 187.534 12.472 188.286 12.136C189.038 11.784 189.902 11.608 190.878 11.608C192.158 11.608 193.278 11.912 194.238 12.52C195.214 13.112 195.902 13.952 196.302 15.04L193.638 16.288C193.446 15.744 193.094 15.312 192.582 14.992C192.086 14.656 191.518 14.488 190.878 14.488C190.414 14.488 190.046 14.584 189.774 14.776C189.518 14.968 189.39 15.232 189.39 15.568C189.39 15.744 189.438 15.904 189.534 16.048C189.63 16.192 189.782 16.32 189.99 16.432C190.214 16.544 190.486 16.648 190.806 16.744L192.894 17.368C193.982 17.688 194.814 18.176 195.39 18.832C195.966 19.472 196.254 20.264 196.254 21.208C196.254 22.024 196.038 22.736 195.606 23.344C195.19 23.952 194.606 24.432 193.854 24.784C193.102 25.12 192.214 25.288 191.19 25.288Z" fill="white"/>
</svg>
