<svg width="191" height="37" viewBox="0 0 191 37" fill="none" xmlns="http://www.w3.org/2000/svg">
<rect y="0.0769043" width="36" height="36" rx="7.5" fill="url(#paint0_linear_342_2979)"/>
<path fill-rule="evenodd" clip-rule="evenodd" d="M23.0071 8.46686C24.9678 7.07421 29.019 6.31878 32.0712 9.87973C32.4633 10.3372 32.549 11.047 32.0082 11.4262C32.0004 11.4317 31.9925 11.4371 31.9845 11.4423C32.3195 11.9886 32.7204 12.8039 32.8288 13.888C32.8779 14.379 32.6401 14.856 32.1471 14.9912C32.0788 15.7927 31.8785 17.3675 30.5924 18.7062C30.0334 19.2879 29.5035 19.6896 29.0371 19.9645C28.6556 20.1893 28.5523 20.3572 28.5369 20.7856C28.4734 22.5525 27.8796 24.4163 26.7363 25.7572C25.3039 27.4372 22.7693 28.3512 19.9428 28.7319C17.1111 29.1133 14.0169 28.7249 11.9069 27.0582C10.5113 25.9558 9.68659 24.4608 9.28024 22.8859C9.16806 22.4511 9.02327 22.3124 8.57995 22.1787C8.00814 22.0062 7.30249 21.684 6.5073 21.1064C5.00535 20.0154 4.53065 18.5005 4.32213 17.7236C2.73067 17.5792 3.51532 15.0745 3.85677 14.2016C3.2369 13.9361 3.18551 13.207 3.49585 12.6791C5.87275 8.63593 9.99383 8.66525 12.1693 9.69055C13.04 10.1009 13.8256 10.5904 14.4643 11.2763C15.5537 12.4462 16.4702 10.2987 17.3974 9.86597C18.5271 9.33878 18.1341 10.1727 18.2259 10.4685C18.3098 10.2685 19.8828 9.4894 19.8075 10.2425C19.7604 10.7135 19.7805 11.0164 20.0835 11.1513C20.4415 11.3107 20.6869 11.0508 20.8413 10.7671C21.3652 9.80385 22.1131 9.10185 23.0071 8.46686ZM14.2752 17.7164C15.0808 17.462 15.7518 18.0708 15.8542 18.8603C15.9565 19.6498 15.6125 20.1977 15.0163 20.3588C14.4202 20.5199 13.7596 19.956 13.6307 19.4082C13.5826 19.2036 13.5479 18.9515 13.5653 18.7025C13.5744 18.5721 13.7645 18.5277 13.8952 18.5277C14.1268 18.5277 14.2913 18.2886 14.2143 18.0742C14.1702 17.9513 14.1507 17.7557 14.2752 17.7164ZM25.0284 16.8851C24.8864 16.1017 24.1855 15.5275 23.3937 15.8222C23.2714 15.8677 23.3007 16.0622 23.351 16.1827C23.4387 16.3929 23.2865 16.64 23.0552 16.6516C22.9247 16.6582 22.737 16.7122 22.7345 16.8429C22.7297 17.0924 22.777 17.3425 22.8354 17.5443C22.9918 18.085 23.68 18.6149 24.2672 18.4239C24.8545 18.2329 25.1705 17.6684 25.0284 16.8851ZM18.1393 22.934C17.8467 22.5427 17.6591 22.0645 17.624 21.5368L17.4768 19.3294C17.3946 18.0952 18.2392 16.991 19.4519 16.7472C20.774 16.4815 22.0644 17.3268 22.3489 18.645L22.8156 20.8075C22.9654 21.5015 22.8264 22.1878 22.4817 22.7446C22.5388 23.8804 21.6486 24.9202 20.4238 24.9422C19.243 24.9635 18.2643 24.076 18.1393 22.934ZM7.44595 16.7922C7.17764 15.2936 8.17499 13.8613 9.67359 13.5929C10.3346 13.4746 10.9827 13.6025 11.5237 13.911C11.6801 14.0002 11.6979 14.2107 11.5787 14.3457C10.6098 15.4423 9.76332 16.8576 9.37162 18.59C9.33145 18.7676 9.14743 18.8774 8.98279 18.7995C8.20418 18.4312 7.60931 17.7046 7.44595 16.7922ZM28.7252 15.2271C29.1192 13.7566 28.2465 12.245 26.776 11.851C25.8806 11.6111 24.9701 11.8407 24.3058 12.389C24.1654 12.5049 24.1866 12.7182 24.3303 12.83C25.7319 13.9209 26.6533 15.2885 27.2342 16.6317C27.3057 16.797 27.5038 16.8703 27.651 16.7667C28.1602 16.4081 28.5514 15.8757 28.7252 15.2271Z" fill="white"/>
<path d="M18.1394 22.9358C18.7045 23.6916 19.6618 24.1227 20.67 23.9582C21.4537 23.8304 22.0964 23.3698 22.4819 22.7471C22.5398 23.8833 21.6493 24.9239 20.4241 24.9459C19.2427 24.9672 18.2635 24.0787 18.1394 22.9358Z" fill="white" fill-opacity="0.4"/>
<path d="M51.751 27.3529C50.6777 27.3529 49.6657 27.1612 48.715 26.7779C47.7797 26.3792 46.967 25.8196 46.277 25.0989C45.6023 24.3782 45.0963 23.5272 44.759 22.5459L47.68 21.2349C48.1093 22.1702 48.6997 22.9062 49.451 23.4429C50.2177 23.9796 51.061 24.2479 51.981 24.2479C52.4717 24.2479 52.8933 24.1712 53.246 24.0179C53.5987 23.8646 53.8747 23.6576 54.074 23.3969C54.2733 23.1209 54.373 22.7989 54.373 22.4309C54.373 22.0322 54.2503 21.6949 54.005 21.4189C53.7597 21.1276 53.3763 20.8976 52.855 20.7289L49.497 19.6249C48.1323 19.1802 47.105 18.5516 46.415 17.7389C45.725 16.9109 45.38 15.9219 45.38 14.7719C45.38 13.7599 45.6253 12.8706 46.116 12.1039C46.622 11.3372 47.3197 10.7392 48.209 10.3099C49.1137 9.88057 50.1487 9.6659 51.314 9.6659C52.3413 9.6659 53.292 9.84224 54.166 10.1949C55.04 10.5476 55.7913 11.0459 56.42 11.6899C57.064 12.3339 57.547 13.1082 57.869 14.0129L54.971 15.3239C54.649 14.5266 54.166 13.9056 53.522 13.4609C52.878 13.0009 52.142 12.7709 51.314 12.7709C50.8387 12.7709 50.417 12.8476 50.049 13.0009C49.681 13.1542 49.3973 13.3766 49.198 13.6679C48.9987 13.9439 48.899 14.2659 48.899 14.6339C48.899 15.0326 49.0293 15.3852 49.29 15.6919C49.5507 15.9832 49.9417 16.2132 50.463 16.3819L53.752 17.4399C55.132 17.8846 56.1593 18.5056 56.834 19.3029C57.524 20.1002 57.869 21.0739 57.869 22.2239C57.869 23.2206 57.6083 24.1099 57.087 24.8919C56.5657 25.6586 55.845 26.2642 54.925 26.7089C54.0203 27.1382 52.9623 27.3529 51.751 27.3529ZM64.6646 27.3529C63.6526 27.3529 62.7863 27.1382 62.0656 26.7089C61.3603 26.2642 60.8236 25.6509 60.4556 24.8689C60.0876 24.0869 59.9036 23.1746 59.9036 22.1319V14.5189H63.3536V21.8559C63.3536 22.3312 63.4456 22.7529 63.6296 23.1209C63.8289 23.4736 64.1049 23.7496 64.4576 23.9489C64.8103 24.1482 65.2089 24.2479 65.6536 24.2479C66.1136 24.2479 66.5123 24.1482 66.8496 23.9489C67.2023 23.7496 67.4706 23.4736 67.6546 23.1209C67.8539 22.7529 67.9536 22.3312 67.9536 21.8559V14.5189H71.4036V27.0769H68.1836V24.5929L68.3676 25.1449C68.0763 25.8962 67.6009 26.4559 66.9416 26.8239C66.2976 27.1766 65.5386 27.3529 64.6646 27.3529ZM73.9252 31.6769V14.5189H77.1452V16.9109L76.8462 16.2209C77.2602 15.5922 77.8198 15.1092 78.5252 14.7719C79.2458 14.4192 80.0662 14.2429 80.9862 14.2429C82.1822 14.2429 83.2632 14.5342 84.2292 15.1169C85.1952 15.6996 85.9618 16.4892 86.5292 17.4859C87.0965 18.4672 87.3802 19.5712 87.3802 20.7979C87.3802 22.0092 87.0965 23.1132 86.5292 24.1099C85.9772 25.1066 85.2182 25.8962 84.2522 26.4789C83.2862 27.0616 82.1898 27.3529 80.9632 27.3529C80.1045 27.3529 79.3072 27.1996 78.5712 26.8929C77.8505 26.5709 77.2678 26.1032 76.8232 25.4899L77.3752 24.7769V31.6769H73.9252ZM80.5492 24.2479C81.1932 24.2479 81.7605 24.1022 82.2512 23.8109C82.7418 23.5196 83.1252 23.1132 83.4012 22.5919C83.6772 22.0706 83.8152 21.4726 83.8152 20.7979C83.8152 20.1232 83.6772 19.5329 83.4012 19.0269C83.1252 18.5056 82.7418 18.0992 82.2512 17.8079C81.7605 17.5012 81.1932 17.3479 80.5492 17.3479C79.9358 17.3479 79.3838 17.4936 78.8932 17.7849C78.4178 18.0762 78.0422 18.4826 77.7662 19.0039C77.5055 19.5252 77.3752 20.1232 77.3752 20.7979C77.3752 21.4726 77.5055 22.0706 77.7662 22.5919C78.0422 23.1132 78.4178 23.5196 78.8932 23.8109C79.3838 24.1022 79.9358 24.2479 80.5492 24.2479ZM95.4497 27.3529C94.1157 27.3529 92.9581 27.0616 91.9767 26.4789C90.9954 25.8809 90.2364 25.0836 89.6997 24.0869C89.1631 23.0902 88.8947 21.9862 88.8947 20.7749C88.8947 19.5176 89.1707 18.3982 89.7227 17.4169C90.2901 16.4356 91.0491 15.6612 91.9997 15.0939C92.9504 14.5266 94.0237 14.2429 95.2197 14.2429C96.2164 14.2429 97.0981 14.4039 97.8647 14.7259C98.6314 15.0326 99.2754 15.4696 99.7967 16.0369C100.333 16.6042 100.74 17.2636 101.016 18.0149C101.292 18.7509 101.43 19.5559 101.43 20.4299C101.43 20.6752 101.414 20.9206 101.384 21.1659C101.368 21.3959 101.33 21.5952 101.269 21.7639H91.8617V19.2339H99.3137L97.6807 20.4299C97.8341 19.7706 97.8264 19.1879 97.6577 18.6819C97.4891 18.1606 97.1901 17.7542 96.7607 17.4629C96.3467 17.1562 95.8331 17.0029 95.2197 17.0029C94.6217 17.0029 94.1081 17.1486 93.6787 17.4399C93.2494 17.7312 92.9274 18.1606 92.7127 18.7279C92.4981 19.2952 92.4137 19.9852 92.4597 20.7979C92.3984 21.5032 92.4827 22.1242 92.7127 22.6609C92.9427 23.1976 93.2954 23.6192 93.7707 23.9259C94.2461 24.2172 94.8211 24.3629 95.4957 24.3629C96.1091 24.3629 96.6304 24.2402 97.0597 23.9949C97.5044 23.7496 97.8494 23.4122 98.0947 22.9829L100.855 24.2939C100.609 24.9072 100.218 25.4439 99.6817 25.9039C99.1604 26.3639 98.5394 26.7242 97.8187 26.9849C97.0981 27.2302 96.3084 27.3529 95.4497 27.3529ZM103.461 27.0769V14.5189H106.681V17.5319L106.451 17.0949C106.727 16.0369 107.18 15.3239 107.808 14.9559C108.452 14.5726 109.211 14.3809 110.085 14.3809H110.821V17.3709H109.74C108.897 17.3709 108.215 17.6316 107.693 18.1529C107.172 18.6589 106.911 19.3796 106.911 20.3149V27.0769H103.461ZM119.371 27.3529C118.513 27.3529 117.715 27.1996 116.979 26.8929C116.259 26.5709 115.676 26.1032 115.231 25.4899L115.553 24.7769V27.0769H112.333V9.6659H115.783V16.9109L115.254 16.2209C115.668 15.5922 116.228 15.1092 116.933 14.7719C117.654 14.4192 118.474 14.2429 119.394 14.2429C120.59 14.2429 121.671 14.5342 122.637 15.1169C123.603 15.6996 124.37 16.4892 124.937 17.4859C125.505 18.4672 125.788 19.5712 125.788 20.7979C125.788 22.0092 125.505 23.1132 124.937 24.1099C124.385 25.1066 123.626 25.8962 122.66 26.4789C121.694 27.0616 120.598 27.3529 119.371 27.3529ZM118.957 24.2479C119.601 24.2479 120.169 24.1022 120.659 23.8109C121.15 23.5196 121.533 23.1132 121.809 22.5919C122.085 22.0706 122.223 21.4726 122.223 20.7979C122.223 20.1232 122.085 19.5329 121.809 19.0269C121.533 18.5056 121.15 18.0992 120.659 17.8079C120.169 17.5012 119.601 17.3479 118.957 17.3479C118.344 17.3479 117.792 17.4936 117.301 17.7849C116.826 18.0762 116.45 18.4826 116.174 19.0039C115.914 19.5252 115.783 20.1232 115.783 20.7979C115.783 21.4726 115.914 22.0706 116.174 22.5919C116.45 23.1132 116.826 23.5196 117.301 23.8109C117.792 24.1022 118.344 24.2479 118.957 24.2479ZM127.809 27.0769V9.6659H131.259V27.0769H127.809ZM140.017 27.3529C138.775 27.3529 137.64 27.0692 136.613 26.5019C135.601 25.9346 134.788 25.1602 134.175 24.1789C133.577 23.1822 133.278 22.0552 133.278 20.7979C133.278 19.5252 133.577 18.3982 134.175 17.4169C134.788 16.4356 135.601 15.6612 136.613 15.0939C137.64 14.5266 138.775 14.2429 140.017 14.2429C141.259 14.2429 142.386 14.5266 143.398 15.0939C144.41 15.6612 145.215 16.4356 145.813 17.4169C146.426 18.3982 146.733 19.5252 146.733 20.7979C146.733 22.0552 146.426 23.1822 145.813 24.1789C145.215 25.1602 144.41 25.9346 143.398 26.5019C142.386 27.0692 141.259 27.3529 140.017 27.3529ZM140.017 24.2479C140.645 24.2479 141.19 24.1022 141.65 23.8109C142.125 23.5196 142.493 23.1132 142.754 22.5919C143.03 22.0706 143.168 21.4726 143.168 20.7979C143.168 20.1232 143.03 19.5329 142.754 19.0269C142.493 18.5056 142.125 18.0992 141.65 17.8079C141.19 17.5012 140.645 17.3479 140.017 17.3479C139.388 17.3479 138.836 17.5012 138.361 17.8079C137.885 18.0992 137.51 18.5056 137.234 19.0269C136.973 19.5329 136.843 20.1232 136.843 20.7979C136.843 21.4726 136.973 22.0706 137.234 22.5919C137.51 23.1132 137.885 23.5196 138.361 23.8109C138.836 24.1022 139.388 24.2479 140.017 24.2479ZM154.929 27.3529C153.672 27.3529 152.537 27.0692 151.525 26.5019C150.528 25.9192 149.731 25.1296 149.133 24.1329C148.55 23.1362 148.259 22.0169 148.259 20.7749C148.259 19.5329 148.55 18.4212 149.133 17.4399C149.716 16.4432 150.513 15.6612 151.525 15.0939C152.537 14.5266 153.672 14.2429 154.929 14.2429C155.864 14.2429 156.731 14.4039 157.528 14.7259C158.325 15.0479 159.008 15.5002 159.575 16.0829C160.142 16.6502 160.549 17.3249 160.794 18.1069L157.804 19.3949C157.589 18.7662 157.221 18.2679 156.7 17.8999C156.194 17.5319 155.604 17.3479 154.929 17.3479C154.331 17.3479 153.794 17.4936 153.319 17.7849C152.859 18.0762 152.491 18.4826 152.215 19.0039C151.954 19.5252 151.824 20.1232 151.824 20.7979C151.824 21.4726 151.954 22.0706 152.215 22.5919C152.491 23.1132 152.859 23.5196 153.319 23.8109C153.794 24.1022 154.331 24.2479 154.929 24.2479C155.619 24.2479 156.217 24.0639 156.723 23.6959C157.229 23.3279 157.589 22.8296 157.804 22.2009L160.794 23.5119C160.564 24.2479 160.165 24.9072 159.598 25.4899C159.031 26.0726 158.348 26.5326 157.551 26.8699C156.754 27.1919 155.88 27.3529 154.929 27.3529ZM162.826 27.0769V9.6659H166.276V20.8209L164.988 20.4069L170.531 14.5189H174.786L170.232 19.5789L174.763 27.0769H170.853L167.058 20.7059L169.059 20.1999L165.218 24.3859L166.276 22.3849V27.0769H162.826ZM181.224 27.3529C179.844 27.3529 178.64 27.0309 177.613 26.3869C176.601 25.7276 175.911 24.8459 175.543 23.7419L178.073 22.5459C178.395 23.2206 178.832 23.7496 179.384 24.1329C179.936 24.5162 180.549 24.7079 181.224 24.7079C181.715 24.7079 182.09 24.6082 182.351 24.4089C182.612 24.2096 182.742 23.9336 182.742 23.5809C182.742 23.3969 182.696 23.2436 182.604 23.1209C182.512 22.9829 182.374 22.8602 182.19 22.7529C182.006 22.6456 181.776 22.5536 181.5 22.4769L179.361 21.8789C178.334 21.5876 177.544 21.1199 176.992 20.4759C176.44 19.8166 176.164 19.0422 176.164 18.1529C176.164 17.3709 176.363 16.6886 176.762 16.1059C177.161 15.5232 177.72 15.0709 178.441 14.7489C179.162 14.4116 179.99 14.2429 180.925 14.2429C182.152 14.2429 183.225 14.5342 184.145 15.1169C185.08 15.6842 185.74 16.4892 186.123 17.5319L183.57 18.7279C183.386 18.2066 183.049 17.7926 182.558 17.4859C182.083 17.1639 181.538 17.0029 180.925 17.0029C180.48 17.0029 180.128 17.0949 179.867 17.2789C179.622 17.4629 179.499 17.7159 179.499 18.0379C179.499 18.2066 179.545 18.3599 179.637 18.4979C179.729 18.6359 179.875 18.7586 180.074 18.8659C180.289 18.9732 180.549 19.0729 180.856 19.1649L182.857 19.7629C183.9 20.0696 184.697 20.5372 185.249 21.1659C185.801 21.7792 186.077 22.5382 186.077 23.4429C186.077 24.2249 185.87 24.9072 185.456 25.4899C185.057 26.0726 184.498 26.5326 183.777 26.8699C183.056 27.1919 182.205 27.3529 181.224 27.3529Z" fill="#1F2633"/>
<defs>
<linearGradient id="paint0_linear_342_2979" x1="0" y1="0.0769043" x2="36" y2="36.0769" gradientUnits="userSpaceOnUse">
<stop stop-color="#575757"/>
<stop offset="1"/>
</linearGradient>
</defs>
</svg>
